<?xml version="1.0" standalone="no"?><!DOCTYPE svg PUBLIC "-//W3C//DTD SVG 1.1//EN" "http://www.w3.org/Graphics/SVG/1.1/DTD/svg11.dtd"><svg t="1750487216440" class="icon" viewBox="0 0 1024 1024" version="1.1" xmlns="http://www.w3.org/2000/svg" p-id="5607" xmlns:xlink="http://www.w3.org/1999/xlink" width="200" height="200"><path d="M311.15865232 715.837599h332.28649874l89.11756281-89.11756282c-42.03782203-18.81443532-81.26002579-33.74375458-81.2600258-33.74375459-80.23418107 80.23418107-152.52351901 82.94066494-171.53439241 82.11125832v-0.37105026s-0.85123253 0.10913199-2.44456684 0.24009114-2.42274092-0.24009114-2.42274092-0.24009114v0.37105026c-19.01087342 0.85123253-91.3220385-1.87707847-171.53439243-82.11125832 0 0-39.28768389 14.92931925-81.28185168 33.74375459zM740.35477072 631.28177264l-90.40532579 90.40532576a351.88668643 351.88668643 0 0 0 61.41974574 115.24387273c41.60129159 51.81608937 117.3392152 113.25766102 243.5399862 116.92451187-31.53927888-84.81774341-104.76715668-246.13733808-125.06579307-271.17232432-12.11370213-14.84201438-52.25261981-35.55535409-91.43117052-53.32211637zM243.3000929 836.9309711a352.10495166 352.10495166 0 0 0 61.3106125-115.2438727l-90.3398456-90.36167275 2.05168943-2.02986351c-39.28768389 17.78859061-79.4702534 38.52375623-91.67126165 53.38759654-20.3859425 25.03498502-93.54834012 186.35457967-125.08761899 271.17232432 126.39720911-3.66685085 202.11330557-65.10842251 243.73642431-116.9245119zM1043.37194403 279.32960722c-8.16310713-41.14293523-19.31644473-81.6747291-28.89827396-122.53392017a86.97856608 86.97856608 0 0 1-2.61917904-19.22913861c-0.24009114-36.71215793-0.48018228-73.4461418 0-110.15829976 0.19643809-11.6553458-3.23032043-20.27681049-13.09589381-26.34457514h-10.91324648c-10.91324526 4.58356357-13.90347452 13.09589504-13.7725154 24.48932259 0.4147033 37.45425846 0.24009114 74.90851696 0 112.36277544a56.02860267 56.02860267 0 0 1-2.18264857 16.06429719c-14.71105524 47.86549434-26.84658332 96.23299808-32.87069611 146.10653123-6.98447737 58.01481315 3.36127954 112.55921355 29.88046682 164.41895595a44.56969499 44.56969499 0 0 1 5.02009282 19.40375081q0.3928774 217.6319415 0.19643808 435.26388183v75.51965837c0 10.38940995 0.13095914 19.64384195 0 28.87644805v82.54778874l0.26191825 0.19643811a161.51603274 161.51603274 0 0 1 13.35781211 14.44913698h10.91324527c9.7564414-6.11141769 13.09589504-14.68922812 13.09589502-26.34457514q-0.4147033-304.87242586 0-609.72302336a49.06595124 49.06595124 0 0 1 5.1292248-21.47726738c30.14238391-58.36403629 39.20037782-119.8492622 26.4973602-183.88818573zM301.70778222 261.67197574c3.33945363-14.77653421 4.95461383-28.37443865 9.51635027-41.0992822 22.52493924-62.42376453 63.29682419-107.47364179 128.1869815-126.48451518 49.7207469-14.51461595 94.85792901-1.24410994 134.88771344 29.48758944 38.85115347 29.8368126 64.38814788 68.84075232 74.60294566 117.20825607 1.33141603 6.26420272 1.83342543 12.70301765 2.99022926 21.12804301-8.44685251-2.44456682-15.49680882-4.19068618-22.32849991-6.54794691-28.00338836-9.4508701-51.51051807-26.8247574-75.54148548-43.26010486-21.28082809-14.55826899-43.34741095-27.85060212-69.12449651-32.30320654-8.09762816-1.396895-17.24292816 0.26191827-25.38420815 2.46639275-25.38420938 6.87534414-46.94878162 21.38996129-68.207785 36.25380158-24.75124083 17.30840713-49.98266396 33.67827562-79.86312958 41.01197611-2.35726075 0.63296852-4.64904253 1.0913249-9.7346155 2.13899673z" fill="#e6e6e6" p-id="5608"></path><path d="M657.3486256 272.45426189c-2.18264857 16.78457181-4.36529835 32.73973699-6.85351823 50.57197942a1516.94112025 1516.94112025 0 0 0-346.25545224 0l-6.89717126-50.20092918c10.43306299-2.88109727 20.58238058-5.21653089 30.55708721-8.46867842 29.33480438-9.62548227 53.80229985-27.91608229 78.88093791-45.04987725 20.45142142-13.96895471 41.68859771-26.58466627 66.57079769-30.5570872 6.22054969-0.98219167 13.09589504 0.78575358 19.46922977 2.53187293 24.14009943 6.70073321 44.65700106 20.42959553 64.86833136 34.63864137 25.97352366 18.22511982 52.51453686 35.38074192 83.98833679 42.8235744 4.93278671 1.28776299 9.97470662 2.40091379 15.671421 3.71050393z m-146.84863057-23.2888657a33.17626622 33.17626622 0 1 0-33.21991926 33.02348116 32.73973699 32.73973699 0 0 0 33.21991926-33.02348116zM309.21609489 360.96068329l28.13434751-2.75013817c7.46465962 35.20612974 14.64557509 70.3249534 50.20092916 89.35765395-16.32621546 46.55590544-15.95516518 92.43518932 0.50200941 139.68954224-5.23835803-0.3928774-9.53817619 0-13.29233313-1.11315202-33.59096953-10.69498004-58.93152585-30.55708721-70.28130157-65.17390146a48.0182806 48.0182806 0 0 1-2.37908665-16.93735685c2.18264857-47.45079102 4.69269556-94.79245005 7.11543527-143.07264769zM566.70320867 586.73390478c16.19525633-46.64321154 16.71909164-92.28240428 0.41470332-138.9474417 35.07517062-18.94539446 42.82357563-53.71499376 50.20092915-89.48861185l27.56685797 2.64100491c0.63296852 1.02584473 1.06949776 1.41872211 1.09132488 1.85525135 2.18264857 42.60531042 3.95059503 85.25427386 6.94082429 127.81593122 2.40091379 34.13663199-12.09187623 59.06248499-38.63288944 78.57536781-11.32794857 8.3377193-23.0051215 15.82420605-37.34512649 17.59215131a96.16751914 96.16751914 0 0 1-10.23662368-0.04365305zM461.76143984-103.52887094c2.18264857 5.02009279 4.36529835 9.93105359 7.26822153 16.60995962 0.91671269-8.59963756 1.6151602-15.27854359 2.35726195-22.45945905l11.87361102 3.38310669v45.68284455h0.82940664l3.05570821-43.65298104 21.32448112 7.13726239c-0.63296852 9.86557342-1.28776299 19.94941325-1.94255744 30.03325069l0.96036576 0.26191827 8.14128121-29.02923309 22.21936791 9.90922766c-5.23835803 14.84201438-10.12749166 28.72366179-15.01662534 42.62713633l1.35324196 0.50200939 13.27050599-17.74493756 1.33141603 0.85123377a48.47663695 48.47663695 0 0 1-2.53187292 4.60538948 122.42478816 122.42478816 0 0 0-23.22338551 71.28531913c0 8.73059668-2.55369884 16.65361269-10.19297185 22.02292985-14.88566742-9.77826853-40.42266064-9.93105359-54.91545065-0.32739724a20.47324858 20.47324858 0 0 1-9.93105358-16.58813371c-1.11315081-10.14931881-0.85123253-20.64786076-3.44858564-30.38247504-2.75013814-10.3457569-8.14128121-20.01489222-12.17918233-29.53124251l6.28602986 5.50027628 1.37506908-0.45835634c-4.2125133-11.67717294-8.38137232-23.37617177-12.63753868-34.92238557-1.92073152-5.23835803-4.01607399-10.43306299-5.71854029-14.8638403 1.41872211-1.59333429 1.52785411-1.85525134 1.72429221-1.89890561 6.72255908-1.70246629 14.12173975-5.8276735 19.99306631-4.23433919 4.5180834 1.22228402 7.09360937 9.60365636 10.91324525 15.38767681 0-4.99826688 0.28374416-10.01835966 0-14.97297351a7.15908953 7.15908953 0 0 1 5.41297018-8.3595452A109.89638147 109.89638147 0 0 0 461.76143984-103.52887094z" fill="#e6e6e6" p-id="5609"></path><path d="M651.01894269 333.39382411v18.83626247a1456.74365734 1456.74365734 0 0 0-347.56504115 0.28374417v-19.12000664c115.92049308-12.79032372 231.36080387-13.70703644 347.56504115 0zM454.18764818 77.17264739a205.86746252 205.86746252 0 0 1 0.26191706-21.8264905 10.91324526 10.91324526 0 0 1 5.43479731-7.57379285 39.41864305 39.41864305 0 0 1 31.19005455 0.15278626 9.49452316 9.49452316 0 0 1 5.10739887 6.39516188c0.63296852 7.6174459 0.24009114 15.27854359 0.24009236 22.83050932zM291.66759664 295.45938336c1.3095889 14.84201438 2.57552596 29.37845622 3.90694198 44.4823889-13.79434256-8.42502539-16.04247127-35.7736181-3.90694198-44.48238887zM659.37848912 340.64021974c0.52383532-8.73059668 0.80758069-16.08612431 1.48420107-23.46347786s1.68064037-14.27452482 2.55370005-21.49909329c11.32794857 8.51233147 9.64730939 33.28539822-4.03790112 44.96257115zM501.50748007 249.4709675a24.2055784 24.2055784 0 1 1-23.50713089-24.77306796 23.79087508 23.79087508 0 0 1 23.50713089 24.77306796z" fill="#e6e6e6" p-id="5610"></path><path d="M625.32916323 333.28469212l-3.4267585-1.63698613H328.29244847c-14.99479941 4.08155415-19.09817951 15.78055301-20.01489221 29.8368126a216.08226028 216.08226028 0 0 0 0.32739723 40.9901502c2.77196406 21.93562373 10.04018558 41.97234188 33.2635723 48.60759488 7.85753702 2.18264857 10.52036908 6.74438622 12.22283417 14.42731105 6.70073321 30.40430217 18.44338502 58.56047561 37.73800387 82.54778877 38.02174683 47.23252579 96.97509861 63.86431257 149.75155374 17.15562085 30.12055798-26.67197235 45.48640768-62.46741757 54.56622751-101.62414112 1.54968126-6.67890605 4.05972704-10.25845081 10.65132697-11.9390912 14.44913699-3.7105039 24.00914032-13.81616844 29.05106026-28.37443743a125.34953726 125.34953726 0 0 0 3.5140646-71.80915568c-1.57150718-6.85351822-7.83570991-15.25671769-14.03443368-18.18146679zM202.28811556 890.62413775c-46.33764022 37.75982979-112.90843789 70.08486226-205.7583293 72.02742088-6.54794693 17.94137567-10.60767518 31.58293195-11.32794854 38.39279715-3.99424807 37.80348282-33.1544403 132.33401462 30.09873083 132.33401459h186.98754701zM969.44561994 1001.02252985c-0.72027462-6.80986517-4.86730775-20.45142142-11.32794979-38.39279833-92.84989263-1.92073152-159.33338419-34.24576398-205.73650338-72.02741969v242.75423263h186.98754822c63.25317117 0 34.07115179-94.5305318 30.07690495-132.33401461zM231.97214432 1084.66164227v48.69490219h490.72499491v-48.69490219zM722.69713923 1075.25442523v-212.10983933c-6.72255908-7.07178346-12.83397679-14.12173975-18.35607897-21.01891104-42.14695405-52.55818992-58.93152585-104.39610641-62.64202854-117.5574792H312.97025183c-3.77598288 13.09589504-20.51690161 64.99929051-62.64202976 117.5574792-5.5221022 6.89717125-11.63351988 13.94712758-18.35607775 21.01891104v212.10983933z m-157.65274381-255.78464751a16.78457181 16.78457181 0 1 1-16.78457179 16.76274468 16.76274469 16.76274469 0 0 1 16.78457179-16.76274468z m0 92.7189335a16.78457181 16.78457181 0 1 1-16.78457179 16.76274468 16.76274469 16.76274469 0 0 1 16.78457179-16.85005076z m-195.36892055-92.7189335a16.78457181 16.78457181 0 1 1-16.7845718 16.76274468 16.76274469 16.76274469 0 0 1 16.7845718-16.76274468z m0 92.7189335a16.78457181 16.78457181 0 1 1-16.7845718 16.76274468 16.76274469 16.76274469 0 0 1 16.7845718-16.85005076z" fill="#e6e6e6" p-id="5611"></path></svg>